<!-- Generator: Adobe Illustrator 19.1.0, SVG Export Plug-In  -->
<svg version="1.1"
	 xmlns="http://www.w3.org/2000/svg" xmlns:xlink="http://www.w3.org/1999/xlink" xmlns:a="http://ns.adobe.com/AdobeSVGViewerExtensions/3.0/"
	 x="0px" y="0px" width="140.775px" height="82.044px" viewBox="0 0 140.775 82.044"
	 style="enable-background:new 0 0 140.775 82.044;" xml:space="preserve">
<style type="text/css">
	.st0{fill:#FFFFFF;}
	.st1{fill:none;stroke:#FFFFFF;stroke-miterlimit:10;}
</style>
<defs>
</defs>
<g>
	<path class="st0" d="M2.319,70.223C1.606,69.77,1.044,69.152,0.63,68.37C0.214,67.588,0.005,66.721,0,65.769
		c-0.005-0.942,0.196-1.809,0.603-2.6c0.406-0.791,0.963-1.414,1.67-1.87c0.707-0.456,1.49-0.686,2.348-0.691
		c0.71-0.004,1.378,0.152,2.004,0.465c0.628,0.314,1.157,0.76,1.589,1.336l-0.78,0.592c-0.348-0.455-0.763-0.806-1.245-1.051
		c-0.483-0.245-1.003-0.366-1.563-0.363c-0.672,0.003-1.287,0.191-1.845,0.562s-0.998,0.876-1.322,1.512
		c-0.324,0.636-0.483,1.337-0.48,2.103c0.004,0.766,0.171,1.467,0.501,2.104c0.33,0.638,0.776,1.14,1.338,1.505
		s1.179,0.547,1.85,0.543c0.561-0.003,1.079-0.129,1.56-0.379c0.479-0.25,0.89-0.604,1.234-1.063l0.786,0.584
		c-0.426,0.581-0.951,1.032-1.575,1.352c-0.623,0.32-1.29,0.482-2,0.486C3.815,70.901,3.03,70.677,2.319,70.223z"/>
	<path class="st0" d="M12.79,70.17c-0.712-0.453-1.275-1.071-1.689-1.853c-0.415-0.782-0.625-1.649-0.629-2.601
		c-0.005-0.942,0.196-1.809,0.603-2.6c0.406-0.791,0.963-1.414,1.67-1.87c0.707-0.456,1.49-0.686,2.348-0.691
		c0.859-0.004,1.647,0.218,2.363,0.667c0.716,0.449,1.282,1.067,1.696,1.853c0.415,0.787,0.625,1.652,0.629,2.594
		c0.005,0.952-0.196,1.823-0.603,2.614c-0.406,0.791-0.965,1.415-1.677,1.871c-0.712,0.456-1.497,0.686-2.356,0.691
		C14.287,70.848,13.501,70.624,12.79,70.17z M16.993,69.302c0.563-0.372,1.005-0.878,1.329-1.519
		c0.323-0.641,0.483-1.344,0.48-2.109c-0.004-0.765-0.172-1.464-0.501-2.098c-0.33-0.633-0.778-1.132-1.345-1.498
		s-1.186-0.547-1.858-0.543s-1.287,0.191-1.845,0.562c-0.558,0.371-0.998,0.876-1.322,1.512c-0.324,0.636-0.483,1.337-0.48,2.103
		c0.004,0.766,0.171,1.467,0.501,2.104c0.33,0.638,0.776,1.14,1.338,1.505c0.561,0.366,1.179,0.547,1.85,0.543
		C15.812,69.86,16.43,69.673,16.993,69.302z"/>
	<path class="st0" d="M22.374,60.769l1.092-0.006l5.809,8.216l-0.042-8.245l0.98-0.005l0.05,9.8l-1.092,0.006l-5.81-8.217
		l0.042,8.246l-0.979,0.005L22.374,60.769z"/>
	<path class="st0" d="M35.177,70.056c-0.712-0.453-1.275-1.071-1.689-1.853c-0.415-0.782-0.625-1.649-0.629-2.601
		c-0.005-0.942,0.196-1.809,0.603-2.6c0.406-0.791,0.963-1.414,1.67-1.87c0.707-0.456,1.49-0.686,2.348-0.691
		c0.71-0.004,1.378,0.152,2.004,0.465c0.628,0.314,1.157,0.76,1.589,1.336l-0.78,0.592c-0.348-0.455-0.763-0.806-1.245-1.051
		c-0.483-0.245-1.003-0.366-1.563-0.363c-0.672,0.003-1.287,0.191-1.845,0.562s-0.998,0.876-1.322,1.512
		c-0.324,0.636-0.483,1.337-0.48,2.103c0.004,0.766,0.171,1.467,0.501,2.104c0.33,0.638,0.776,1.14,1.338,1.505
		c0.561,0.366,1.179,0.547,1.85,0.543c0.561-0.003,1.079-0.129,1.56-0.379c0.479-0.25,0.89-0.604,1.234-1.063l0.786,0.584
		c-0.426,0.581-0.951,1.032-1.575,1.352c-0.623,0.32-1.29,0.482-2,0.486C36.673,70.734,35.888,70.51,35.177,70.056z"/>
	<path class="st0" d="M43.473,60.662l6.3-0.032l0.005,0.98l-5.32,0.027l0.017,3.43l5.32-0.027l0.005,0.98l-5.32,0.027l0.017,3.43
		l5.32-0.027l0.005,0.98l-6.3,0.032L43.473,60.662z"/>
	<path class="st0" d="M58.824,70.384l-3.018-4.395l-2.24,0.011l0.022,4.41l-0.979,0.005l-0.025-4.9l-0.025-4.9l4.368-0.022
		c0.476-0.002,0.908,0.114,1.297,0.35c0.388,0.236,0.695,0.559,0.922,0.968c0.226,0.41,0.34,0.866,0.343,1.37
		c0.003,0.495-0.106,0.948-0.322,1.36c-0.218,0.412-0.517,0.738-0.898,0.978c-0.382,0.24-0.81,0.361-1.286,0.363l3.033,4.395
		L58.824,70.384z M56.949,65.003c0.457-0.002,0.832-0.165,1.124-0.489c0.292-0.323,0.437-0.732,0.434-1.227
		c-0.003-0.495-0.151-0.905-0.447-1.23s-0.672-0.486-1.129-0.484l-3.389,0.017l0.017,3.43L56.949,65.003z"/>
	<path class="st0" d="M65.317,61.531l-3.5,0.018l-0.005-0.98l7.966-0.04l0.005,0.98l-3.486,0.018l0.045,8.82l-0.979,0.005
		L65.317,61.531z"/>
</g>
<path class="st0" d="M66.556,36.989l-3.958,14.32H34.892l15.472-21.517C64.036,8.204,38.705,4.03,37.194,16.551l-1.151,0.144
	C34.532,5.613,43.887,0,50.148,0c7.197,0,13.025,5.901,13.025,12.45c0,7.916-8.996,14.608-13.744,20.653
	c-1.799,2.303-5.901,7.988-5.901,7.988h15.255c2.447,0,5.253-1.223,6.837-4.102H66.556z"/>
<line class="st1" x1="67.048" y1="81.782" x2="116.893" y2="0.797"/>
<path class="st0" d="M140.775,65.045l-3.958,14.32h-27.706l15.472-21.517c13.673-21.588-11.658-25.762-13.169-13.241l-1.151,0.144
	c-1.511-11.082,7.844-16.695,14.105-16.695c7.197,0,13.025,5.901,13.025,12.45c0,7.916-8.994,14.608-13.744,20.653
	c-1.799,2.303-5.901,7.988-5.901,7.988h15.256c2.446,0,5.252-1.223,6.836-4.102H140.775z"/>
<path class="st0" d="M68.759,51.309h17.112l7.73-10.28c-0.32,0.041-0.638,0.062-0.949,0.062H77.395c0,0,4.102-5.685,5.901-7.988
	c4.75-6.045,13.744-12.737,13.744-20.653C97.041,5.901,91.212,0,84.016,0C77.755,0,68.4,5.613,69.911,16.695l1.151-0.144
	C72.573,4.03,97.904,8.204,84.231,29.792L68.759,51.309z"/>
<path class="st0" d="M98.286,72.888V31.059L87.348,48.797v24.091c0,4.318-2.087,5.614-5.038,5.614v0.863h20.221v-0.863
	C100.013,78.502,98.286,77.422,98.286,72.888z"/>
</svg>