<!-- Generator: Adobe Illustrator 19.1.0, SVG Export Plug-In  -->
<svg version="1.1"
	 xmlns="http://www.w3.org/2000/svg" xmlns:xlink="http://www.w3.org/1999/xlink" xmlns:a="http://ns.adobe.com/AdobeSVGViewerExtensions/3.0/"
	 x="0px" y="0px" width="274.604px" height="126.324px" viewBox="0 0 274.604 126.324"
	 style="enable-background:new 0 0 274.604 126.324;" xml:space="preserve">
<style type="text/css">
	.st0{fill:#FFFFFF;}
	.st1{fill:none;stroke:#FFFFFF;stroke-miterlimit:10;}
	.st2{fill:none;}
	.st3{font-family:'ElliotSans-Regular';}
	.st4{font-size:12px;}
</style>
<defs>
</defs>
<g>
	<path class="st0" d="M51.187,50.562v0.617h-13.6c-4.852,0-6.356-3.087-7.996-15.848c-0.888-6.86-9.089-6.449-9.089-6.449H17.29
		v14.544c0,6.723-0.158,7.135,6.359,7.135v0.617H0v-0.617c2.939,0,3.554-0.137,3.554-7.135V9.536C3.554,5.283,3.007,3.43,0,3.43
		V2.882h19.409c13.6,0,25.833,1.647,25.833,13.104c0,10.291-9.431,12.418-15.992,12.418c7.859,0,11.823,1.715,15.172,14.064
		C45.788,47.681,49.411,50.425,51.187,50.562z M29.181,15.985c0-13.104-1.777-12.486-9.772-12.486H17.29v24.767h2.119
		C28.293,28.266,29.181,28.403,29.181,15.985z"/>
	<path class="st0" d="M89.113,50.631v0.549H72.028l-0.645-0.544c3.125,0.175,3.379-3.778,3.379-7.277V29.638
		c0-3.91-1.435-5.832-4.715-5.763c-1.64,0-3.349,1.372-4.237,2.95v16.603c0,3.773,0.042,6.689,3.459,7.213l-0.657,0.539H51.187
		v-0.617c2.164-0.168,3.004-3.637,3.004-7.135V7.821c0-2.401-0.82-3.362-3.622-4.391V2.882L65.809,0v25.864
		c1.64-3.842,5.399-6.998,9.294-6.998c5.467,0,11.208,2.264,11.208,10.496v13.995C86.311,47.132,86.721,50.013,89.113,50.631z"/>
	<path class="st0" d="M126.971,19.484v0.549c-4.92,0-6.492,2.607-10.114,11.251l-8.543,24.629c-2.118,6.861-4.1,9.536-5.672,10.84
		c-1.504,1.235-4.579,1.578-6.561,0.687c-2.939-1.372-4.169-4.802-2.939-7.753c1.367-2.95,4.784-4.253,7.722-2.95
		c1.503,0.687,2.529,1.784,3.007,3.225c0.273,1.029,1.982,2.332,3.895-4.528L92.186,24.287c-1.913-3.567-4.169-4.117-5.536-4.254
		v-0.549h21.391v0.549c-4.579,0-1.572,5.763-1.572,5.763l6.97,13.584l2.802-8.301c0,0,3.349-11.046-5.194-11.046v-0.549H126.971z"/>
	<path class="st0" d="M148.907,44.731l0.41,0.274c-0.82,3.637-4.784,6.792-9.841,6.792c-5.399,0-11.549-2.196-11.549-10.496V20.102
		h-4.306v-0.617h4.306v-9.193l11.481-1.441v10.634h19.438v0.617h-19.438v20.993c0,3.842,1.367,5.694,5.331,5.694
		C146.72,46.789,148.086,45.691,148.907,44.731z"/>
	<path class="st0" d="M187.79,50.631v0.549h-17.085v-0.549c2.597-0.754,2.734-3.773,2.734-7.272V29.638
		c0-3.91-1.435-5.832-4.715-5.763c-1.64,0-3.349,1.372-4.237,2.95v16.603c0,3.773,0.342,6.517,2.802,7.203v0.549h-17.085v-0.549
		c2.597-0.754,2.665-3.705,2.665-7.203V7.821c0-2.401-0.82-3.362-3.622-4.391V2.882L164.485,0v25.864
		c1.64-3.842,5.399-6.998,9.294-6.998c5.467,0,11.208,2.264,11.208,10.496v13.995C184.987,47.132,185.397,50.013,187.79,50.631z"/>
	<path class="st0" d="M242.665,50.631v0.549l-17.369,2.679V53.31c2.597-0.754,3.017-6.453,3.017-9.952V29.569
		c0-3.91-0.683-5.763-3.075-5.763c-1.708,0-3.144,1.441-4.032,3.087c0.136,1.166,0.136,1.578,0.136,2.401v14.064
		c0,3.773,0.857,9.609,3.249,10.226v0.549l-17.144,2.083v-0.549c2.597-0.754,2.346-8.81,2.346-12.309V29.569
		c0-3.91-0.615-5.763-3.076-5.763c-1.503,0-2.802,1.166-3.691,2.607v17.014c0,3.773,0.786,11.829,3.246,12.515v0.549l-16.909,2.611
		v-0.549c2.597-0.754,2.045-11.558,2.045-15.126v-16.74c0-2.401-0.752-3.362-3.554-4.391v-0.549l15.171-2.881v6.517
		c1.572-3.567,4.579-6.517,8.269-6.517c4.784,0,8.953,1.715,9.841,7.066c1.504-3.979,4.648-7.066,8.68-7.066
		c5.467,0,10.046,2.195,10.046,10.428v14.064C239.862,47.132,240.273,50.013,242.665,50.631z"/>
</g>
<path class="st0" d="M68.345,59.48v49.086c0,1.528-0.285,8.308,4.186,8.308v0.86H47.987v-0.86c2.474,0,2.283-6.78,2.283-8.308
	V86.028H27.249v22.538c0,1.528-0.285,8.308,2.283,8.308v0.86H4.893v-0.86c4.661,0,4.281-6.78,4.281-8.308V59.48
	c0-0.955-0.118-8.258-8.969-8.258L0,50.541l36.925-0.044l1.301,0.683c-11.625-0.41-10.542,5.965-10.977,8.3v25.689h23.021V59.48
	c0-0.955,0.58-8.252-2.586-8.3l0.314-0.521l24.752-0.04l0.185,0.561C67.684,51.186,68.345,58.524,68.345,59.48z"/>
<path class="st0" d="M119.34,94.92H93.465c0,14.515,4.566,18.335,10.94,19.768c4.757,1.05,11.13-1.814,13.033-9.932l0.856,0.191
	c-1.237,7.067-8.181,13.847-20.073,13.847c-12.462,0-22.546-9.932-22.546-22.824c0-16.235,12.271-23.015,23.973-23.015
	C109.732,72.955,119.34,76.966,119.34,94.92z M105.546,94.06c0-12.033-1.237-20.246-5.517-20.246
	c-4.376,0-6.564,11.077-6.564,20.246H105.546z"/>
<path class="st0" d="M172.474,111.823c-1.332,4.202-6.278,6.972-12.271,6.972c0,0-10.56,0-11.416-8.595
	c-1.237,4.966-6.088,8.595-12.843,8.595c-3.615,0-11.891-1.624-11.891-9.741c0-9.55,7.706-11.365,24.639-15.376v-6.112
	c0-9.932-5.613-15.279-12.177-11.842c0,0-2.093,1.241,1.142,2.388c1.617,0.573,2.664,1.91,3.424,3.629
	c1.427,3.533-0.19,7.353-3.71,8.882c-3.425,1.337-7.325-0.287-8.752-3.725c-0.951-2.482-0.476-5.348,1.142-7.067
	c1.141-1.241,2.854-2.961,6.373-4.871c4.281-2.292,8.942-2.005,8.942-2.005c12.462,0,19.407,7.831,19.407,19.1v14.229
	c0,0,0,6.875,4.566,6.684c0,0,2.378,0,2.854-1.623L172.474,111.823z M148.691,94.633c-7.801,1.719-7.706,7.544-7.706,12.033
	c0,0-0.095,6.302,3.71,6.302c1.617,0,2.949-1.337,3.995-3.629V94.633z"/>
<path class="st0" d="M217.321,87.757c-3.234,3.724-8.751,4.106-12.557,0.955c-1.808-1.72-3.045-3.725-3.045-5.922
	c0-1.241-3.044-0.572-6.945,5.348v19.005c0,5.252,0.476,9.072,3.901,10.027v0.764h-23.782v-0.764c3.615-1.05,3.71-5.157,3.71-10.027
	V83.842c0-3.342-1.142-4.68-5.042-6.112v-0.764l21.214-4.011v13.37c6.755-10.218,9.609-11.365,12.462-12.702
	c2.664-1.241,6.659-0.669,9.133,1.528C220.08,78.399,220.555,84.128,217.321,87.757z"/>
<path class="st0" d="M254.896,108.958l0.571,0.381c-1.142,5.062-6.659,9.455-13.699,9.455c-7.516,0-16.077-3.056-16.077-14.611
	V74.674h-5.994v-0.859h5.994V57.906l15.982-2.783v18.692h12.272v0.859h-12.272v29.223c0,5.348,1.903,7.926,7.42,7.926
	C251.852,111.823,253.755,110.295,254.896,108.958z"/>
<line class="st1" x1="114.938" y1="62.249" x2="121.988" y2="62.249"/>
<line class="st1" x1="174.938" y1="62.249" x2="181.988" y2="62.249"/>
<g>
	<rect x="126.815" y="58.324" class="st2" width="147.789" height="68"/>
	<path class="st0" d="M129.384,66.34c-0.608-0.392-1.089-0.924-1.44-1.596c-0.353-0.672-0.528-1.416-0.528-2.232
		c0-0.808,0.176-1.55,0.528-2.226c0.352-0.676,0.832-1.208,1.44-1.596c0.607-0.388,1.279-0.582,2.016-0.582s1.41,0.194,2.022,0.582
		c0.611,0.388,1.094,0.92,1.445,1.596c0.353,0.676,0.528,1.418,0.528,2.226c0,0.816-0.176,1.562-0.528,2.238
		c-0.352,0.676-0.834,1.208-1.445,1.596c-0.612,0.388-1.286,0.582-2.022,0.582S129.991,66.731,129.384,66.34z M132.989,65.614
		c0.484-0.316,0.866-0.748,1.146-1.296c0.279-0.548,0.42-1.15,0.42-1.806s-0.141-1.256-0.42-1.8c-0.28-0.544-0.662-0.974-1.146-1.29
		c-0.484-0.316-1.014-0.474-1.59-0.474s-1.104,0.158-1.584,0.474c-0.48,0.316-0.86,0.746-1.14,1.29c-0.28,0.544-0.42,1.145-0.42,1.8
		s0.14,1.258,0.42,1.806c0.279,0.548,0.659,0.98,1.14,1.296s1.008,0.474,1.584,0.474S132.505,65.93,132.989,65.614z"/>
	<path class="st0" d="M137.039,58.324h4.979v0.84h-4.14v2.94h4.14v0.84h-4.14v3.78h-0.84V58.324z"/>
	<path class="st0" d="M150.227,59.164h-3v-0.84h6.828v0.84h-2.988v7.56h-0.84V59.164z"/>
	<path class="st0" d="M155.844,58.324h0.84v3.78h4.872v-3.78h0.84v8.4h-0.84v-3.78h-4.872v3.78h-0.84V58.324z"/>
	<path class="st0" d="M164.183,58.324h5.399v0.84h-4.56v2.94h4.56v0.84h-4.56v2.94h4.56v0.84h-5.399V58.324z"/>
</g>
</svg>